<svg xmlns="http://www.w3.org/2000/svg" version="1.1" xmlns:xlink="http://www.w3.org/1999/xlink" xmlns:svgjs="http://svgjs.com/svgjs" width="1440" height="560" preserveAspectRatio="none" viewBox="0 0 1440 560"><g mask="url(&quot;#SvgjsMask1013&quot;)" fill="none"><rect width="1440" height="560" x="0" y="0" fill="rgba(239, 236, 202, 1)"></rect><path d="M995.7 5.79L1048.72 5.79L1048.72 58.81L995.7 58.81z" fill="#e73635"></path><path d="M510.67 134.25L519.09 134.25L519.09 152.41L510.67 152.41z" fill="#d3b714"></path><path d="M1059.91 316.55L1061.94 316.55L1061.94 362.39L1059.91 362.39z" stroke="#d3b714"></path><path d="M441.65 451.56L461.21 451.56L461.21 471.12L441.65 471.12z" fill="#d3b714"></path><path d="M788.88 535.52L835.32 535.52L835.32 540.24L788.88 540.24z" fill="rgba(30, 37, 113, 1)"></path><path d="M305.58 49.34 a8.25 8.25 0 1 0 16.5 0 a8.25 8.25 0 1 0 -16.5 0z" fill="#e73635"></path><path d="M892.46 403.72 a0.88 0.88 0 1 0 1.76 0 a0.88 0.88 0 1 0 -1.76 0z" stroke="#d3b714"></path><path d="M1326.99 538.83 a0.25 0.25 0 1 0 0.5 0 a0.25 0.25 0 1 0 -0.5 0z" stroke="#037b0b"></path><path d="M470.98 56.56a45.71 45.71 0 1 0 25.05 87.92z" fill="rgba(30, 37, 113, 1)"></path><path d="M135.44 318.39L162.13 318.39L162.13 345.08L135.44 345.08z" fill="#d3b714"></path><path d="M671.48 289 a3.4 3.4 0 1 0 6.8 0 a3.4 3.4 0 1 0 -6.8 0z" stroke="rgba(30, 37, 113, 1)"></path><path d="M1126.58 285.91L1173.86 285.91L1173.86 333.19L1126.58 333.19z" stroke="#037b0b"></path><path d="M933.61 112.62a23.88 23.88 0 1 0-43.48-19.77z" fill="#d3b714"></path><path d="M14.73 304.79L21.44 304.79L21.44 320.53L14.73 320.53z" fill="#d3b714"></path><path d="M629.75 483.88L670.42 483.88L670.42 512.51L629.75 512.51z" fill="#037b0b"></path><path d="M748.09 206L795.81 206L795.81 260.25L748.09 260.25z" stroke="#e73635"></path><path d="M425.92 52.61a5.52 5.52 0 1 0-1.03 10.99z" fill="#037b0b"></path><path d="M1138.85 50.1 a12.97 12.97 0 1 0 25.94 0 a12.97 12.97 0 1 0 -25.94 0z" fill="#e73635"></path><path d="M352.64 480.99a29.23 29.23 0 1 0-54.83-20.26z" stroke="#d3b714"></path><path d="M1303.84 411.32L1308.24 411.32L1308.24 438.39L1303.84 438.39z" fill="#e73635"></path><path d="M553.23 30.57L587.09 30.57L587.09 31.21L553.23 31.21z" stroke="#d3b714"></path><path d="M784.39 115.06a30.86 30.86 0 1 0 7.42 61.27z" fill="#037b0b"></path><path d="M947.47 336.83L960.97 336.83L960.97 343.08L947.47 343.08z" stroke="#037b0b"></path><path d="M1296.05 140.82L1345.47 140.82L1345.47 160.42L1296.05 160.42z" fill="#037b0b"></path><path d="M1404.05 141.92a1.36 1.36 0 1 0-0.66-2.64z" fill="#e73635"></path><path d="M498.1 546.74L514.74 546.74L514.74 563.38L498.1 563.38z" stroke="rgba(30, 37, 113, 1)"></path><path d="M614.89 387.16 a32.58 32.58 0 1 0 65.16 0 a32.58 32.58 0 1 0 -65.16 0z" fill="#037b0b"></path><path d="M927.1 300.57a16.17 16.17 0 1 0 26.3-18.82z" fill="#d3b714"></path><path d="M36.48 289.87L53.43 289.87L53.43 306.82L36.48 306.82z" stroke="#037b0b"></path><path d="M287.97 215.21 a3.64 3.64 0 1 0 7.28 0 a3.64 3.64 0 1 0 -7.28 0z" fill="#037b0b"></path><path d="M965.45 384.65L1003.69 384.65L1003.69 428.36L965.45 428.36z" stroke="#e73635"></path><path d="M339.28 164.79 a51.59 51.59 0 1 0 103.18 0 a51.59 51.59 0 1 0 -103.18 0z" stroke="rgba(30, 37, 113, 1)"></path><path d="M63.2 160.24a27.61 27.61 0 1 0 33.15-44.16z" fill="#d3b714"></path></g><defs><mask id="SvgjsMask1013"><rect width="1440" height="560" fill="#ffffff"></rect></mask></defs></svg>