<svg xmlns="http://www.w3.org/2000/svg" viewBox="0 0 1440 320"><path fill="#0099ff" fill-opacity="1" d="M0,320L0,64L36.9,64L36.9,96L73.8,96L73.8,256L110.8,256L110.8,256L147.7,256L147.7,96L184.6,96L184.6,32L221.5,32L221.5,192L258.5,192L258.5,160L295.4,160L295.4,96L332.3,96L332.3,224L369.2,224L369.2,64L406.2,64L406.2,64L443.1,64L443.1,128L480,128L480,160L516.9,160L516.9,160L553.8,160L553.8,0L590.8,0L590.8,192L627.7,192L627.7,192L664.6,192L664.6,224L701.5,224L701.5,192L738.5,192L738.5,288L775.4,288L775.4,224L812.3,224L812.3,224L849.2,224L849.2,288L886.2,288L886.2,320L923.1,320L923.1,0L960,0L960,256L996.9,256L996.9,128L1033.8,128L1033.8,160L1070.8,160L1070.8,224L1107.7,224L1107.7,0L1144.6,0L1144.6,128L1181.5,128L1181.5,160L1218.5,160L1218.5,288L1255.4,288L1255.4,32L1292.3,32L1292.3,96L1329.2,96L1329.2,288L1366.2,288L1366.2,64L1403.1,64L1403.1,128L1440,128L1440,320L1403.1,320L1403.1,320L1366.2,320L1366.2,320L1329.2,320L1329.2,320L1292.3,320L1292.3,320L1255.4,320L1255.4,320L1218.5,320L1218.5,320L1181.5,320L1181.5,320L1144.6,320L1144.6,320L1107.7,320L1107.7,320L1070.8,320L1070.8,320L1033.8,320L1033.8,320L996.9,320L996.9,320L960,320L960,320L923.1,320L923.1,320L886.2,320L886.2,320L849.2,320L849.2,320L812.3,320L812.3,320L775.4,320L775.4,320L738.5,320L738.5,320L701.5,320L701.5,320L664.6,320L664.6,320L627.7,320L627.7,320L590.8,320L590.8,320L553.8,320L553.8,320L516.9,320L516.9,320L480,320L480,320L443.1,320L443.1,320L406.2,320L406.2,320L369.2,320L369.2,320L332.3,320L332.3,320L295.4,320L295.4,320L258.5,320L258.5,320L221.5,320L221.5,320L184.6,320L184.6,320L147.7,320L147.7,320L110.8,320L110.8,320L73.8,320L73.8,320L36.9,320L36.9,320L0,320L0,320Z"></path></svg>